# Blender v2.79 (sub 7) OBJ File: ''
# www.blender.org
mtllib door.mtl
o cube
v -0.480000 -0.000000 0.025000
v 0.480000 -0.000000 0.025000
v -0.480000 1.000000 0.025000
v 0.480000 1.000000 0.025000
v -0.480000 1.000000 -0.025000
v 0.480000 1.000000 -0.025000
v -0.480000 0.000000 -0.025000
v 0.480000 0.000000 -0.025000
v 0.480000 1.000000 0.025000
v 0.480000 1.000000 0.025000
v 0.480000 1.000000 0.025000
v 0.480000 1.000000 0.025000
v 0.480000 1.000000 -0.025000
v 0.480000 1.000000 -0.025000
v 0.480000 1.000000 -0.025000
v -0.480000 1.000000 0.025000
v -0.480000 1.000000 0.025000
v -0.480000 1.000000 0.025000
v -0.480000 1.000000 -0.025000
v -0.480000 1.000000 -0.025000
v -0.480000 1.000000 -0.025000
v -0.480000 1.000000 -0.025000
v -0.480000 -0.000000 0.025000
v -0.480000 -0.000000 0.025000
v -0.480000 -0.000000 0.025000
v -0.480000 -0.000000 0.025000
v 0.480000 0.000000 -0.025000
v 0.480000 0.000000 -0.025000
v 0.480000 0.000000 -0.025000
v 0.480000 0.000000 -0.025000
v -0.480000 0.000000 -0.025000
v -0.480000 0.000000 -0.025000
v -0.480000 0.000000 -0.025000
v 0.480000 -0.000000 0.025000
v 0.480000 -0.000000 0.025000
v 0.480000 -0.000000 0.025000
vt 0.827386 0.466565
vt 0.000452 0.468115
vt 0.827386 0.981857
vt 0.827386 0.981857
vt 0.000452 0.468115
vt 0.000452 0.981858
vt 0.040979 0.463356
vt 0.436577 0.463356
vt 0.040978 0.398164
vt 0.040978 0.398164
vt 0.436577 0.463356
vt 0.436577 0.398164
vt 0.000208 0.980849
vt 0.827413 0.982011
vt 0.000208 0.469658
vt 0.000208 0.469658
vt 0.827800 0.982399
vt 0.827800 0.468108
vt 0.040978 0.398432
vt 0.436577 0.398432
vt 0.040979 0.464365
vt 0.040979 0.464365
vt 0.436577 0.398432
vt 0.436577 0.464365
vt 0.040978 0.464223
vt 0.040978 0.398290
vt 0.370643 0.464223
vt 0.370643 0.464223
vt 0.040978 0.398290
vt 0.370643 0.398290
vt 0.040978 0.398022
vt 0.040978 0.464633
vt 0.370643 0.398022
vt 0.370643 0.398022
vt 0.040978 0.464633
vt 0.370643 0.464633
vn 0.0000 -0.0000 1.0000
vn 0.0000 1.0000 0.0000
vn 0.0000 0.0000 -1.0000
vn 0.0000 -1.0000 -0.0000
vn 1.0000 0.0000 0.0000
vn -1.0000 0.0000 0.0000
usemtl cube
s 1
f 24/1/1 35/2/1 18/3/1
f 17/4/1 34/5/1 10/6/1
f 16/7/2 12/8/2 19/9/2
f 22/10/2 9/11/2 13/12/2
f 21/13/3 15/14/3 31/15/3
f 33/16/3 14/17/3 28/18/3
f 32/19/4 29/20/4 25/21/4
f 1/22/4 30/23/4 36/24/4
f 2/25/5 27/26/5 11/27/5
f 4/28/5 8/29/5 6/30/5
f 7/31/6 23/32/6 20/33/6
f 5/34/6 26/35/6 3/36/6
